<mxfile host="app.diagrams.net" modified="2023-05-24T14:47:29.187Z" agent="Mozilla/5.0 (Windows NT 10.0; Win64; x64) AppleWebKit/537.36 (KHTML, like Gecko) Chrome/113.0.0.0 Safari/537.36 Edg/113.0.1774.50" etag="zvc41I-JJuF2Bi8DRj29" version="21.3.3" type="device">
  <diagram id="R2lEEEUBdFMjLlhIrx00" name="Page-1">
    <mxGraphModel dx="979" dy="470" grid="1" gridSize="10" guides="1" tooltips="1" connect="1" arrows="1" fold="1" page="1" pageScale="1" pageWidth="850" pageHeight="1100" math="0" shadow="0" extFonts="Permanent Marker^https://fonts.googleapis.com/css?family=Permanent+Marker">
      <root>
        <mxCell id="0" />
        <mxCell id="1" parent="0" />
        <mxCell id="JUCI6dmqOSZUhBDlNyJu-1" value="" style="rounded=0;whiteSpace=wrap;html=1;" vertex="1" parent="1">
          <mxGeometry x="320" y="180" width="120" height="60" as="geometry" />
        </mxCell>
        <mxCell id="JUCI6dmqOSZUhBDlNyJu-2" value="" style="rhombus;whiteSpace=wrap;html=1;" vertex="1" parent="1">
          <mxGeometry x="315" y="310" width="130" height="110" as="geometry" />
        </mxCell>
        <mxCell id="JUCI6dmqOSZUhBDlNyJu-8" value="" style="rounded=0;whiteSpace=wrap;html=1;" vertex="1" parent="1">
          <mxGeometry x="720" y="180" width="120" height="60" as="geometry" />
        </mxCell>
        <mxCell id="JUCI6dmqOSZUhBDlNyJu-9" value="" style="ellipse;whiteSpace=wrap;html=1;" vertex="1" parent="1">
          <mxGeometry x="330" y="50" width="100" height="60" as="geometry" />
        </mxCell>
        <mxCell id="JUCI6dmqOSZUhBDlNyJu-10" value="" style="ellipse;whiteSpace=wrap;html=1;" vertex="1" parent="1">
          <mxGeometry x="330" y="470" width="100" height="60" as="geometry" />
        </mxCell>
        <mxCell id="JUCI6dmqOSZUhBDlNyJu-11" value="" style="rounded=0;whiteSpace=wrap;html=1;" vertex="1" parent="1">
          <mxGeometry x="320" y="580" width="120" height="60" as="geometry" />
        </mxCell>
        <mxCell id="JUCI6dmqOSZUhBDlNyJu-12" value="" style="ellipse;whiteSpace=wrap;html=1;" vertex="1" parent="1">
          <mxGeometry x="170" y="510" width="100" height="60" as="geometry" />
        </mxCell>
        <mxCell id="JUCI6dmqOSZUhBDlNyJu-13" value="" style="ellipse;whiteSpace=wrap;html=1;" vertex="1" parent="1">
          <mxGeometry x="170" y="640" width="100" height="60" as="geometry" />
        </mxCell>
        <mxCell id="JUCI6dmqOSZUhBDlNyJu-14" value="" style="ellipse;whiteSpace=wrap;html=1;" vertex="1" parent="1">
          <mxGeometry x="330" y="700" width="100" height="60" as="geometry" />
        </mxCell>
        <mxCell id="JUCI6dmqOSZUhBDlNyJu-16" value="" style="ellipse;whiteSpace=wrap;html=1;" vertex="1" parent="1">
          <mxGeometry x="490" y="510" width="100" height="60" as="geometry" />
        </mxCell>
        <mxCell id="JUCI6dmqOSZUhBDlNyJu-17" value="" style="rhombus;whiteSpace=wrap;html=1;" vertex="1" parent="1">
          <mxGeometry x="520" y="155" width="130" height="110" as="geometry" />
        </mxCell>
        <mxCell id="JUCI6dmqOSZUhBDlNyJu-18" value="" style="ellipse;whiteSpace=wrap;html=1;" vertex="1" parent="1">
          <mxGeometry x="500" y="640" width="100" height="60" as="geometry" />
        </mxCell>
        <mxCell id="JUCI6dmqOSZUhBDlNyJu-19" value="" style="ellipse;whiteSpace=wrap;html=1;" vertex="1" parent="1">
          <mxGeometry x="690" y="50" width="100" height="60" as="geometry" />
        </mxCell>
        <mxCell id="JUCI6dmqOSZUhBDlNyJu-20" value="" style="ellipse;whiteSpace=wrap;html=1;" vertex="1" parent="1">
          <mxGeometry x="930" y="180" width="100" height="60" as="geometry" />
        </mxCell>
        <mxCell id="JUCI6dmqOSZUhBDlNyJu-21" value="" style="ellipse;whiteSpace=wrap;html=1;" vertex="1" parent="1">
          <mxGeometry x="850" y="80" width="100" height="60" as="geometry" />
        </mxCell>
        <mxCell id="JUCI6dmqOSZUhBDlNyJu-22" value="" style="ellipse;whiteSpace=wrap;html=1;" vertex="1" parent="1">
          <mxGeometry x="840" y="300" width="100" height="60" as="geometry" />
        </mxCell>
        <mxCell id="JUCI6dmqOSZUhBDlNyJu-23" value="" style="rhombus;whiteSpace=wrap;html=1;" vertex="1" parent="1">
          <mxGeometry x="715" y="390" width="130" height="110" as="geometry" />
        </mxCell>
        <mxCell id="JUCI6dmqOSZUhBDlNyJu-25" value="" style="endArrow=none;html=1;rounded=0;entryX=0.5;entryY=1;entryDx=0;entryDy=0;exitX=0.5;exitY=0;exitDx=0;exitDy=0;" edge="1" parent="1" source="JUCI6dmqOSZUhBDlNyJu-2" target="JUCI6dmqOSZUhBDlNyJu-1">
          <mxGeometry width="50" height="50" relative="1" as="geometry">
            <mxPoint x="380" y="300" as="sourcePoint" />
            <mxPoint x="570" y="290" as="targetPoint" />
          </mxGeometry>
        </mxCell>
        <mxCell id="JUCI6dmqOSZUhBDlNyJu-26" value="" style="endArrow=none;html=1;rounded=0;entryX=0.5;entryY=1;entryDx=0;entryDy=0;exitX=0.5;exitY=0;exitDx=0;exitDy=0;" edge="1" parent="1">
          <mxGeometry width="50" height="50" relative="1" as="geometry">
            <mxPoint x="379.33" y="180" as="sourcePoint" />
            <mxPoint x="379.33" y="110" as="targetPoint" />
          </mxGeometry>
        </mxCell>
        <mxCell id="JUCI6dmqOSZUhBDlNyJu-27" value="" style="endArrow=none;html=1;rounded=0;entryX=0.5;entryY=1;entryDx=0;entryDy=0;exitX=0.493;exitY=0;exitDx=0;exitDy=0;exitPerimeter=0;" edge="1" parent="1" source="JUCI6dmqOSZUhBDlNyJu-10">
          <mxGeometry width="50" height="50" relative="1" as="geometry">
            <mxPoint x="379" y="460" as="sourcePoint" />
            <mxPoint x="379.33" y="420" as="targetPoint" />
          </mxGeometry>
        </mxCell>
        <mxCell id="JUCI6dmqOSZUhBDlNyJu-30" value="" style="endArrow=none;html=1;rounded=0;entryX=0;entryY=0.667;entryDx=0;entryDy=0;entryPerimeter=0;" edge="1" parent="1" target="JUCI6dmqOSZUhBDlNyJu-16">
          <mxGeometry width="50" height="50" relative="1" as="geometry">
            <mxPoint x="440" y="610" as="sourcePoint" />
            <mxPoint x="490" y="560" as="targetPoint" />
          </mxGeometry>
        </mxCell>
        <mxCell id="JUCI6dmqOSZUhBDlNyJu-32" value="" style="endArrow=none;html=1;rounded=0;exitX=0.5;exitY=0;exitDx=0;exitDy=0;" edge="1" parent="1">
          <mxGeometry width="50" height="50" relative="1" as="geometry">
            <mxPoint x="379.33" y="580" as="sourcePoint" />
            <mxPoint x="379" y="530" as="targetPoint" />
          </mxGeometry>
        </mxCell>
        <mxCell id="JUCI6dmqOSZUhBDlNyJu-34" value="" style="endArrow=none;html=1;rounded=0;" edge="1" parent="1">
          <mxGeometry width="50" height="50" relative="1" as="geometry">
            <mxPoint x="320" y="610" as="sourcePoint" />
            <mxPoint x="270" y="550" as="targetPoint" />
          </mxGeometry>
        </mxCell>
        <mxCell id="JUCI6dmqOSZUhBDlNyJu-35" value="" style="endArrow=none;html=1;rounded=0;" edge="1" parent="1">
          <mxGeometry width="50" height="50" relative="1" as="geometry">
            <mxPoint x="270" y="660" as="sourcePoint" />
            <mxPoint x="320" y="610" as="targetPoint" />
          </mxGeometry>
        </mxCell>
        <mxCell id="JUCI6dmqOSZUhBDlNyJu-36" value="" style="endArrow=none;html=1;rounded=0;exitX=1;exitY=0.5;exitDx=0;exitDy=0;" edge="1" parent="1" source="JUCI6dmqOSZUhBDlNyJu-11">
          <mxGeometry width="50" height="50" relative="1" as="geometry">
            <mxPoint x="450" y="720" as="sourcePoint" />
            <mxPoint x="500" y="670" as="targetPoint" />
          </mxGeometry>
        </mxCell>
        <mxCell id="JUCI6dmqOSZUhBDlNyJu-37" value="" style="endArrow=none;html=1;rounded=0;exitX=0.5;exitY=0;exitDx=0;exitDy=0;" edge="1" parent="1" source="JUCI6dmqOSZUhBDlNyJu-14">
          <mxGeometry width="50" height="50" relative="1" as="geometry">
            <mxPoint x="380" y="690" as="sourcePoint" />
            <mxPoint x="380" y="640" as="targetPoint" />
          </mxGeometry>
        </mxCell>
        <mxCell id="JUCI6dmqOSZUhBDlNyJu-38" value="" style="endArrow=none;html=1;rounded=0;exitX=1;exitY=0;exitDx=0;exitDy=0;" edge="1" parent="1" source="JUCI6dmqOSZUhBDlNyJu-8">
          <mxGeometry width="50" height="50" relative="1" as="geometry">
            <mxPoint x="840" y="170" as="sourcePoint" />
            <mxPoint x="860" y="130" as="targetPoint" />
          </mxGeometry>
        </mxCell>
        <mxCell id="JUCI6dmqOSZUhBDlNyJu-39" value="" style="endArrow=none;html=1;rounded=0;entryX=0;entryY=0.5;entryDx=0;entryDy=0;exitX=1;exitY=0.5;exitDx=0;exitDy=0;" edge="1" parent="1" source="JUCI6dmqOSZUhBDlNyJu-8" target="JUCI6dmqOSZUhBDlNyJu-20">
          <mxGeometry width="50" height="50" relative="1" as="geometry">
            <mxPoint x="840" y="220" as="sourcePoint" />
            <mxPoint x="890" y="170" as="targetPoint" />
          </mxGeometry>
        </mxCell>
        <mxCell id="JUCI6dmqOSZUhBDlNyJu-40" value="" style="endArrow=none;html=1;rounded=0;exitX=0.5;exitY=0;exitDx=0;exitDy=0;" edge="1" parent="1" source="JUCI6dmqOSZUhBDlNyJu-8">
          <mxGeometry width="50" height="50" relative="1" as="geometry">
            <mxPoint x="690" y="160" as="sourcePoint" />
            <mxPoint x="740" y="110" as="targetPoint" />
          </mxGeometry>
        </mxCell>
        <mxCell id="JUCI6dmqOSZUhBDlNyJu-41" value="" style="endArrow=none;html=1;rounded=0;exitX=0.5;exitY=0;exitDx=0;exitDy=0;" edge="1" parent="1" source="JUCI6dmqOSZUhBDlNyJu-22">
          <mxGeometry width="50" height="50" relative="1" as="geometry">
            <mxPoint x="880" y="290" as="sourcePoint" />
            <mxPoint x="840" y="240" as="targetPoint" />
          </mxGeometry>
        </mxCell>
        <mxCell id="JUCI6dmqOSZUhBDlNyJu-42" value="" style="endArrow=none;html=1;rounded=0;entryX=0;entryY=0.5;entryDx=0;entryDy=0;exitX=1;exitY=0.5;exitDx=0;exitDy=0;" edge="1" parent="1" source="JUCI6dmqOSZUhBDlNyJu-1" target="JUCI6dmqOSZUhBDlNyJu-17">
          <mxGeometry width="50" height="50" relative="1" as="geometry">
            <mxPoint x="500" y="340" as="sourcePoint" />
            <mxPoint x="550" y="290" as="targetPoint" />
          </mxGeometry>
        </mxCell>
        <mxCell id="JUCI6dmqOSZUhBDlNyJu-43" value="" style="endArrow=none;html=1;rounded=0;" edge="1" parent="1" source="JUCI6dmqOSZUhBDlNyJu-17">
          <mxGeometry width="50" height="50" relative="1" as="geometry">
            <mxPoint x="650" y="260" as="sourcePoint" />
            <mxPoint x="720.7106781186548" y="210" as="targetPoint" />
          </mxGeometry>
        </mxCell>
        <mxCell id="JUCI6dmqOSZUhBDlNyJu-44" value="" style="endArrow=none;html=1;rounded=0;entryX=0;entryY=1;entryDx=0;entryDy=0;" edge="1" parent="1" source="JUCI6dmqOSZUhBDlNyJu-47" target="JUCI6dmqOSZUhBDlNyJu-8">
          <mxGeometry width="50" height="50" relative="1" as="geometry">
            <mxPoint x="670" y="280" as="sourcePoint" />
            <mxPoint x="720" y="230" as="targetPoint" />
          </mxGeometry>
        </mxCell>
        <mxCell id="JUCI6dmqOSZUhBDlNyJu-45" value="" style="endArrow=none;html=1;rounded=0;exitX=0.75;exitY=0;exitDx=0;exitDy=0;" edge="1" parent="1" source="JUCI6dmqOSZUhBDlNyJu-11">
          <mxGeometry width="50" height="50" relative="1" as="geometry">
            <mxPoint x="500" y="440" as="sourcePoint" />
            <mxPoint x="550" y="390" as="targetPoint" />
          </mxGeometry>
        </mxCell>
        <mxCell id="JUCI6dmqOSZUhBDlNyJu-47" value="" style="rhombus;whiteSpace=wrap;html=1;" vertex="1" parent="1">
          <mxGeometry x="520" y="320" width="130" height="110" as="geometry" />
        </mxCell>
        <mxCell id="JUCI6dmqOSZUhBDlNyJu-48" value="" style="rhombus;whiteSpace=wrap;html=1;" vertex="1" parent="1">
          <mxGeometry x="520" y="750" width="130" height="110" as="geometry" />
        </mxCell>
        <mxCell id="JUCI6dmqOSZUhBDlNyJu-49" value="" style="rounded=0;whiteSpace=wrap;html=1;" vertex="1" parent="1">
          <mxGeometry x="720" y="580" width="120" height="60" as="geometry" />
        </mxCell>
        <mxCell id="JUCI6dmqOSZUhBDlNyJu-50" value="" style="endArrow=none;html=1;rounded=0;entryX=0.75;entryY=1;entryDx=0;entryDy=0;" edge="1" parent="1" source="JUCI6dmqOSZUhBDlNyJu-48" target="JUCI6dmqOSZUhBDlNyJu-11">
          <mxGeometry width="50" height="50" relative="1" as="geometry">
            <mxPoint x="470" y="780" as="sourcePoint" />
            <mxPoint x="520" y="730" as="targetPoint" />
          </mxGeometry>
        </mxCell>
        <mxCell id="JUCI6dmqOSZUhBDlNyJu-51" value="" style="endArrow=none;html=1;rounded=0;entryX=0.5;entryY=1;entryDx=0;entryDy=0;exitX=0.5;exitY=0;exitDx=0;exitDy=0;" edge="1" parent="1" source="JUCI6dmqOSZUhBDlNyJu-23" target="JUCI6dmqOSZUhBDlNyJu-8">
          <mxGeometry width="50" height="50" relative="1" as="geometry">
            <mxPoint x="780" y="380" as="sourcePoint" />
            <mxPoint x="820" y="340" as="targetPoint" />
          </mxGeometry>
        </mxCell>
        <mxCell id="JUCI6dmqOSZUhBDlNyJu-52" value="" style="endArrow=none;html=1;rounded=0;exitX=0.5;exitY=0;exitDx=0;exitDy=0;" edge="1" parent="1" source="JUCI6dmqOSZUhBDlNyJu-49">
          <mxGeometry width="50" height="50" relative="1" as="geometry">
            <mxPoint x="730" y="550" as="sourcePoint" />
            <mxPoint x="780" y="500" as="targetPoint" />
          </mxGeometry>
        </mxCell>
        <mxCell id="JUCI6dmqOSZUhBDlNyJu-53" value="" style="endArrow=none;html=1;rounded=0;entryX=0;entryY=0.667;entryDx=0;entryDy=0;entryPerimeter=0;" edge="1" parent="1">
          <mxGeometry width="50" height="50" relative="1" as="geometry">
            <mxPoint x="840" y="580" as="sourcePoint" />
            <mxPoint x="890" y="520" as="targetPoint" />
          </mxGeometry>
        </mxCell>
        <mxCell id="JUCI6dmqOSZUhBDlNyJu-54" value="" style="endArrow=none;html=1;rounded=0;entryX=0;entryY=1;entryDx=0;entryDy=0;exitX=1;exitY=0;exitDx=0;exitDy=0;" edge="1" parent="1" source="JUCI6dmqOSZUhBDlNyJu-48" target="JUCI6dmqOSZUhBDlNyJu-49">
          <mxGeometry width="50" height="50" relative="1" as="geometry">
            <mxPoint x="610" y="790" as="sourcePoint" />
            <mxPoint x="660" y="740" as="targetPoint" />
          </mxGeometry>
        </mxCell>
        <mxCell id="JUCI6dmqOSZUhBDlNyJu-55" value="" style="endArrow=none;html=1;rounded=0;exitX=1;exitY=0.5;exitDx=0;exitDy=0;entryX=0;entryY=0.5;entryDx=0;entryDy=0;" edge="1" parent="1" source="JUCI6dmqOSZUhBDlNyJu-49" target="JUCI6dmqOSZUhBDlNyJu-58">
          <mxGeometry width="50" height="50" relative="1" as="geometry">
            <mxPoint x="850" y="590" as="sourcePoint" />
            <mxPoint x="900" y="610" as="targetPoint" />
          </mxGeometry>
        </mxCell>
        <mxCell id="JUCI6dmqOSZUhBDlNyJu-56" value="" style="ellipse;whiteSpace=wrap;html=1;" vertex="1" parent="1">
          <mxGeometry x="730" y="700" width="100" height="60" as="geometry" />
        </mxCell>
        <mxCell id="JUCI6dmqOSZUhBDlNyJu-57" value="" style="endArrow=none;html=1;rounded=0;entryX=0.5;entryY=1;entryDx=0;entryDy=0;exitX=0.5;exitY=0;exitDx=0;exitDy=0;" edge="1" parent="1" source="JUCI6dmqOSZUhBDlNyJu-56" target="JUCI6dmqOSZUhBDlNyJu-49">
          <mxGeometry width="50" height="50" relative="1" as="geometry">
            <mxPoint x="780" y="690" as="sourcePoint" />
            <mxPoint x="830" y="650" as="targetPoint" />
          </mxGeometry>
        </mxCell>
        <mxCell id="JUCI6dmqOSZUhBDlNyJu-58" value="" style="ellipse;whiteSpace=wrap;html=1;" vertex="1" parent="1">
          <mxGeometry x="930" y="580" width="100" height="60" as="geometry" />
        </mxCell>
        <mxCell id="JUCI6dmqOSZUhBDlNyJu-59" value="" style="ellipse;whiteSpace=wrap;html=1;" vertex="1" parent="1">
          <mxGeometry x="870" y="670" width="100" height="60" as="geometry" />
        </mxCell>
        <mxCell id="JUCI6dmqOSZUhBDlNyJu-61" value="" style="ellipse;whiteSpace=wrap;html=1;" vertex="1" parent="1">
          <mxGeometry x="870" y="470" width="100" height="60" as="geometry" />
        </mxCell>
        <mxCell id="JUCI6dmqOSZUhBDlNyJu-62" value="" style="endArrow=none;html=1;rounded=0;exitX=0;exitY=0;exitDx=0;exitDy=0;entryX=1;entryY=1;entryDx=0;entryDy=0;" edge="1" parent="1" source="JUCI6dmqOSZUhBDlNyJu-59" target="JUCI6dmqOSZUhBDlNyJu-49">
          <mxGeometry width="50" height="50" relative="1" as="geometry">
            <mxPoint x="790" y="690" as="sourcePoint" />
            <mxPoint x="840" y="640" as="targetPoint" />
          </mxGeometry>
        </mxCell>
        <mxCell id="JUCI6dmqOSZUhBDlNyJu-63" value="Admin_id" style="text;html=1;strokeColor=none;fillColor=none;align=center;verticalAlign=middle;whiteSpace=wrap;rounded=0;" vertex="1" parent="1">
          <mxGeometry x="350" y="65" width="60" height="30" as="geometry" />
        </mxCell>
        <mxCell id="JUCI6dmqOSZUhBDlNyJu-64" value="Admin" style="text;html=1;strokeColor=none;fillColor=none;align=center;verticalAlign=middle;whiteSpace=wrap;rounded=0;" vertex="1" parent="1">
          <mxGeometry x="350" y="195" width="60" height="30" as="geometry" />
        </mxCell>
        <mxCell id="JUCI6dmqOSZUhBDlNyJu-65" value="Operations" style="text;html=1;strokeColor=none;fillColor=none;align=center;verticalAlign=middle;whiteSpace=wrap;rounded=0;" vertex="1" parent="1">
          <mxGeometry x="350" y="350" width="60" height="30" as="geometry" />
        </mxCell>
        <mxCell id="JUCI6dmqOSZUhBDlNyJu-66" value="title" style="text;html=1;strokeColor=none;fillColor=none;align=center;verticalAlign=middle;whiteSpace=wrap;rounded=0;" vertex="1" parent="1">
          <mxGeometry x="350" y="485" width="60" height="30" as="geometry" />
        </mxCell>
        <mxCell id="JUCI6dmqOSZUhBDlNyJu-68" value="Audio_id" style="text;html=1;strokeColor=none;fillColor=none;align=center;verticalAlign=middle;whiteSpace=wrap;rounded=0;" vertex="1" parent="1">
          <mxGeometry x="190" y="530" width="60" height="30" as="geometry" />
        </mxCell>
        <mxCell id="JUCI6dmqOSZUhBDlNyJu-69" value="description" style="text;html=1;strokeColor=none;fillColor=none;align=center;verticalAlign=middle;whiteSpace=wrap;rounded=0;" vertex="1" parent="1">
          <mxGeometry x="190" y="655" width="60" height="30" as="geometry" />
        </mxCell>
        <mxCell id="JUCI6dmqOSZUhBDlNyJu-70" value="year" style="text;html=1;strokeColor=none;fillColor=none;align=center;verticalAlign=middle;whiteSpace=wrap;rounded=0;" vertex="1" parent="1">
          <mxGeometry x="350" y="715" width="60" height="30" as="geometry" />
        </mxCell>
        <mxCell id="JUCI6dmqOSZUhBDlNyJu-71" value="genre" style="text;html=1;strokeColor=none;fillColor=none;align=center;verticalAlign=middle;whiteSpace=wrap;rounded=0;" vertex="1" parent="1">
          <mxGeometry x="520" y="655" width="60" height="30" as="geometry" />
        </mxCell>
        <mxCell id="JUCI6dmqOSZUhBDlNyJu-72" value="artist" style="text;html=1;strokeColor=none;fillColor=none;align=center;verticalAlign=middle;whiteSpace=wrap;rounded=0;" vertex="1" parent="1">
          <mxGeometry x="510" y="525" width="60" height="30" as="geometry" />
        </mxCell>
        <mxCell id="JUCI6dmqOSZUhBDlNyJu-74" value="Audio" style="text;html=1;strokeColor=none;fillColor=none;align=center;verticalAlign=middle;whiteSpace=wrap;rounded=0;" vertex="1" parent="1">
          <mxGeometry x="350" y="595" width="60" height="30" as="geometry" />
        </mxCell>
        <mxCell id="JUCI6dmqOSZUhBDlNyJu-75" value="Listen" style="text;html=1;strokeColor=none;fillColor=none;align=center;verticalAlign=middle;whiteSpace=wrap;rounded=0;" vertex="1" parent="1">
          <mxGeometry x="555" y="790" width="60" height="30" as="geometry" />
        </mxCell>
        <mxCell id="JUCI6dmqOSZUhBDlNyJu-76" value="E-mail" style="text;html=1;strokeColor=none;fillColor=none;align=center;verticalAlign=middle;whiteSpace=wrap;rounded=0;" vertex="1" parent="1">
          <mxGeometry x="750" y="715" width="60" height="30" as="geometry" />
        </mxCell>
        <mxCell id="JUCI6dmqOSZUhBDlNyJu-79" value="Password" style="text;html=1;strokeColor=none;fillColor=none;align=center;verticalAlign=middle;whiteSpace=wrap;rounded=0;" vertex="1" parent="1">
          <mxGeometry x="890" y="685" width="60" height="30" as="geometry" />
        </mxCell>
        <mxCell id="JUCI6dmqOSZUhBDlNyJu-80" value="Username" style="text;html=1;strokeColor=none;fillColor=none;align=center;verticalAlign=middle;whiteSpace=wrap;rounded=0;" vertex="1" parent="1">
          <mxGeometry x="950" y="595" width="60" height="30" as="geometry" />
        </mxCell>
        <mxCell id="JUCI6dmqOSZUhBDlNyJu-81" value="User_id" style="text;html=1;strokeColor=none;fillColor=none;align=center;verticalAlign=middle;whiteSpace=wrap;rounded=0;" vertex="1" parent="1">
          <mxGeometry x="890" y="485" width="60" height="30" as="geometry" />
        </mxCell>
        <mxCell id="JUCI6dmqOSZUhBDlNyJu-82" value="User" style="text;html=1;strokeColor=none;fillColor=none;align=center;verticalAlign=middle;whiteSpace=wrap;rounded=0;" vertex="1" parent="1">
          <mxGeometry x="750" y="595" width="60" height="30" as="geometry" />
        </mxCell>
        <mxCell id="JUCI6dmqOSZUhBDlNyJu-83" value="Receive" style="text;html=1;strokeColor=none;fillColor=none;align=center;verticalAlign=middle;whiteSpace=wrap;rounded=0;" vertex="1" parent="1">
          <mxGeometry x="750" y="430" width="60" height="30" as="geometry" />
        </mxCell>
        <mxCell id="JUCI6dmqOSZUhBDlNyJu-84" value="Have" style="text;html=1;strokeColor=none;fillColor=none;align=center;verticalAlign=middle;whiteSpace=wrap;rounded=0;" vertex="1" parent="1">
          <mxGeometry x="550" y="360" width="60" height="30" as="geometry" />
        </mxCell>
        <mxCell id="JUCI6dmqOSZUhBDlNyJu-85" value="View" style="text;html=1;strokeColor=none;fillColor=none;align=center;verticalAlign=middle;whiteSpace=wrap;rounded=0;" vertex="1" parent="1">
          <mxGeometry x="555" y="195" width="60" height="30" as="geometry" />
        </mxCell>
        <mxCell id="JUCI6dmqOSZUhBDlNyJu-86" value="Rating" style="text;html=1;strokeColor=none;fillColor=none;align=center;verticalAlign=middle;whiteSpace=wrap;rounded=0;" vertex="1" parent="1">
          <mxGeometry x="750" y="195" width="60" height="30" as="geometry" />
        </mxCell>
        <mxCell id="JUCI6dmqOSZUhBDlNyJu-87" value="Rating_id" style="text;html=1;strokeColor=none;fillColor=none;align=center;verticalAlign=middle;whiteSpace=wrap;rounded=0;" vertex="1" parent="1">
          <mxGeometry x="710" y="65" width="60" height="30" as="geometry" />
        </mxCell>
        <mxCell id="JUCI6dmqOSZUhBDlNyJu-88" value="Rating_val" style="text;html=1;strokeColor=none;fillColor=none;align=center;verticalAlign=middle;whiteSpace=wrap;rounded=0;" vertex="1" parent="1">
          <mxGeometry x="870" y="95" width="60" height="30" as="geometry" />
        </mxCell>
        <mxCell id="JUCI6dmqOSZUhBDlNyJu-89" value="User_id" style="text;html=1;strokeColor=none;fillColor=none;align=center;verticalAlign=middle;whiteSpace=wrap;rounded=0;" vertex="1" parent="1">
          <mxGeometry x="950" y="195" width="60" height="30" as="geometry" />
        </mxCell>
        <mxCell id="JUCI6dmqOSZUhBDlNyJu-90" value="Audio_id" style="text;html=1;strokeColor=none;fillColor=none;align=center;verticalAlign=middle;whiteSpace=wrap;rounded=0;" vertex="1" parent="1">
          <mxGeometry x="860" y="315" width="60" height="30" as="geometry" />
        </mxCell>
      </root>
    </mxGraphModel>
  </diagram>
</mxfile>
